# xmcd
#
# Track frame offsets: 
#        150
#        16472
#        55376
#        77118
#        111926
#        139451
#        172927
#        203848
#
# Disc length: 2925 seconds
#
# Revision: 4
# Processed by: cddbd v1.5.2PL0 Copyright (c) Steve Scherf et al.
# Submitted via: ExactAudioCopyFreeDBPlugin 1.0
#
DISCID=6d0b6b08
DTITLE=Junior Kimbrough - Most Things Haven't Worked Out
DYEAR=1997
DGENRE=Blues
TTITLE0=Lonesome Road
TTITLE1=I'm in Love
TTITLE2=Everywhere I Go
TTITLE3=Burn in Hell
TTITLE4=Most Things Haven't Worked Out
TTITLE5=Leave Her Alone
TTITLE6=I Love Ya Baby
TTITLE7=I'm Leaving You Baby
EXTD=
EXTT0=
EXTT1=
EXTT2=
EXTT3=
EXTT4=
EXTT5=
EXTT6=
EXTT7=
PLAYORDER=
